<?xml version="1.0" encoding="UTF-8" standalone="no"?>
<!DOCTYPE svg PUBLIC "-//W3C//DTD SVG 1.1//EN" "http://www.w3.org/Graphics/SVG/1.1/DTD/svg11.dtd">
<svg xmlns="http://www.w3.org/2000/svg" xmlns:xl="http://www.w3.org/1999/xlink" version="1.1" viewBox="78 47 499 402" width="499pt" height="402pt" xmlns:dc="http://purl.org/dc/elements/1.1/"><metadata> Produced by OmniGraffle 6.6.1 <dc:date>2016-10-29 21:29:52 +0000</dc:date></metadata><defs><marker orient="auto" overflow="visible" markerUnits="strokeWidth" id="FilledArrow_Marker" viewBox="-1 -3 6 6" markerWidth="6" markerHeight="6" color="black"><g><path d="M 3.7333333 0 L 0 -1.4 L 0 1.4 Z" fill="currentColor" stroke="currentColor" stroke-width="1"/></g></marker></defs><g stroke="none" stroke-opacity="1" stroke-dasharray="none" fill="none" fill-opacity="1"><title>Canvas 1</title><rect fill="white" width="805.88977" height="536.27556"/><g><title>Layer 1</title><path d="M 135.61417 59.52756 L 237.61417 59.52756 C 242.58473 59.52756 246.61417 63.556996 246.61417 68.52756 L 246.61417 170.52756 C 246.61417 175.49812 242.58473 179.52756 237.61417 179.52756 L 135.61417 179.52756 C 130.64361 179.52756 126.61417 175.49812 126.61417 170.52756 L 126.61417 68.52756 C 126.61417 63.556996 130.64361 59.52756 135.61417 59.52756 Z" fill="white"/><path d="M 135.61417 59.52756 L 237.61417 59.52756 C 242.58473 59.52756 246.61417 63.556996 246.61417 68.52756 L 246.61417 170.52756 C 246.61417 175.49812 242.58473 179.52756 237.61417 179.52756 L 135.61417 179.52756 C 130.64361 179.52756 126.61417 175.49812 126.61417 170.52756 L 126.61417 68.52756 C 126.61417 63.556996 130.64361 59.52756 135.61417 59.52756 Z" stroke="black" stroke-linecap="round" stroke-linejoin="round" stroke-width="3"/><path d="M 402.07086 89.76378 L 504.07086 89.76378 C 509.04143 89.76378 513.07086 93.793216 513.07086 98.76378 L 513.07086 200.76378 C 513.07086 205.73434 509.04143 209.76378 504.07086 209.76378 L 402.07086 209.76378 C 397.1003 209.76378 393.07086 205.73434 393.07086 200.76378 L 393.07086 98.76378 C 393.07086 93.793216 397.1003 89.76378 402.07086 89.76378 Z" fill="white"/><path d="M 402.07086 89.76378 L 504.07086 89.76378 C 509.04143 89.76378 513.07086 93.793216 513.07086 98.76378 L 513.07086 200.76378 C 513.07086 205.73434 509.04143 209.76378 504.07086 209.76378 L 402.07086 209.76378 C 397.1003 209.76378 393.07086 205.73434 393.07086 200.76378 L 393.07086 98.76378 C 393.07086 93.793216 397.1003 89.76378 402.07086 89.76378 Z" stroke="black" stroke-linecap="round" stroke-linejoin="round" stroke-width="3"/><path d="M 99.70866 316.53543 L 201.70866 316.53543 C 206.67922 316.53543 210.70866 320.56487 210.70866 325.53543 L 210.70866 427.53543 C 210.70866 432.506 206.67922 436.53543 201.70866 436.53543 L 99.70866 436.53543 C 94.7381 436.53543 90.70866 432.506 90.70866 427.53543 L 90.70866 325.53543 C 90.70866 320.56487 94.7381 316.53543 99.70866 316.53543 Z" fill="white"/><path d="M 99.70866 316.53543 L 201.70866 316.53543 C 206.67922 316.53543 210.70866 320.56487 210.70866 325.53543 L 210.70866 427.53543 C 210.70866 432.506 206.67922 436.53543 201.70866 436.53543 L 99.70866 436.53543 C 94.7381 436.53543 90.70866 432.506 90.70866 427.53543 L 90.70866 325.53543 C 90.70866 320.56487 94.7381 316.53543 99.70866 316.53543 Z" stroke="black" stroke-linecap="round" stroke-linejoin="round" stroke-width="3"/><line x1="248.11417" y1="126.50628" x2="375.77225" y2="140.992305" marker-end="url(#FilledArrow_Marker)" stroke="black" stroke-linecap="round" stroke-linejoin="round" stroke-width="3"/><line x1="391.57086" y1="195.88878" x2="224.92866" y2="320.87043" marker-end="url(#FilledArrow_Marker)" stroke="black" stroke-linecap="round" stroke-linejoin="round" stroke-width="3"/><line x1="159.30057" y1="315.03543" x2="175.8223" y2="196.77463" marker-end="url(#FilledArrow_Marker)" stroke="black" stroke-linecap="round" stroke-linejoin="round" stroke-width="3"/><path d="M 453.09448 299.52756 L 555.0945 299.52756 C 560.06505 299.52756 564.0945 303.557 564.0945 308.52756 L 564.0945 410.52756 C 564.0945 415.49812 560.06505 419.52756 555.0945 419.52756 L 453.09448 419.52756 C 448.12392 419.52756 444.09448 415.49812 444.09448 410.52756 L 444.09448 308.52756 C 444.09448 303.557 448.12392 299.52756 453.09448 299.52756 Z" fill="white"/><path d="M 453.09448 299.52756 L 555.0945 299.52756 C 560.06505 299.52756 564.0945 303.557 564.0945 308.52756 L 564.0945 410.52756 C 564.0945 415.49812 560.06505 419.52756 555.0945 419.52756 L 453.09448 419.52756 C 448.12392 419.52756 444.09448 415.49812 444.09448 410.52756 L 444.09448 308.52756 C 444.09448 303.557 448.12392 299.52756 453.09448 299.52756 Z" stroke="black" stroke-linecap="round" stroke-linejoin="round" stroke-width="3"/><line x1="468.03032" y1="211.26378" x2="485.37704" y2="282.57804" marker-end="url(#FilledArrow_Marker)" stroke="black" stroke-linecap="round" stroke-linejoin="round" stroke-width="3"/><line x1="212.20866" y1="373.57554" x2="426.71287" y2="363.2518" marker-end="url(#FilledArrow_Marker)" stroke="black" stroke-linecap="round" stroke-linejoin="round" stroke-width="3"/></g></g></svg>
