<?xml version="1.0" encoding="UTF-8" standalone="no"?>
<!DOCTYPE svg PUBLIC "-//W3C//DTD SVG 1.1//EN" "http://www.w3.org/Graphics/SVG/1.1/DTD/svg11.dtd">
<svg xmlns="http://www.w3.org/2000/svg" xmlns:xl="http://www.w3.org/1999/xlink" version="1.1" viewBox="41 1 738 486" width="738pt" height="486pt" xmlns:dc="http://purl.org/dc/elements/1.1/"><metadata> Produced by OmniGraffle 6.6.1 <dc:date>2016-10-29 21:34:34 +0000</dc:date></metadata><defs><marker orient="auto" overflow="visible" markerUnits="strokeWidth" id="FilledArrow_Marker" viewBox="-1 -3 6 6" markerWidth="6" markerHeight="6" color="black"><g><path d="M 3.7333333 0 L 0 -1.4 L 0 1.4 Z" fill="currentColor" stroke="currentColor" stroke-width="1"/></g></marker></defs><g stroke="none" stroke-opacity="1" stroke-dasharray="none" fill="none" fill-opacity="1"><title>Canvas 1</title><rect fill="white" width="805.88977" height="536.27556"/><g><title>Layer 1</title><path d="M 62.858267 35.90551 L 164.85827 35.90551 C 169.82883 35.90551 173.85827 39.934948 173.85827 44.90551 L 173.85827 146.90551 C 173.85827 151.87607 169.82883 155.90551 164.85827 155.90551 L 62.858267 155.90551 C 57.887705 155.90551 53.858267 151.87607 53.858267 146.90551 L 53.858267 44.90551 C 53.858267 39.934948 57.887705 35.90551 62.858267 35.90551 Z" fill="white"/><path d="M 62.858267 35.90551 L 164.85827 35.90551 C 169.82883 35.90551 173.85827 39.934948 173.85827 44.90551 L 173.85827 146.90551 C 173.85827 151.87607 169.82883 155.90551 164.85827 155.90551 L 62.858267 155.90551 C 57.887705 155.90551 53.858267 151.87607 53.858267 146.90551 L 53.858267 44.90551 C 53.858267 39.934948 57.887705 35.90551 62.858267 35.90551 Z" stroke="black" stroke-linecap="round" stroke-linejoin="round" stroke-width="3"/><path d="M 404.9055 35.90551 L 506.9055 35.90551 C 511.87607 35.90551 515.9055 39.934948 515.9055 44.90551 L 515.9055 146.90551 C 515.9055 151.87607 511.87607 155.90551 506.9055 155.90551 L 404.9055 155.90551 C 399.93495 155.90551 395.9055 151.87607 395.9055 146.90551 L 395.9055 44.90551 C 395.9055 39.934948 399.93495 35.90551 404.9055 35.90551 Z" fill="white"/><path d="M 404.9055 35.90551 L 506.9055 35.90551 C 511.87607 35.90551 515.9055 39.934948 515.9055 44.90551 L 515.9055 146.90551 C 515.9055 151.87607 511.87607 155.90551 506.9055 155.90551 L 404.9055 155.90551 C 399.93495 155.90551 395.9055 151.87607 395.9055 146.90551 L 395.9055 44.90551 C 395.9055 39.934948 399.93495 35.90551 404.9055 35.90551 Z" stroke="black" stroke-linecap="round" stroke-linejoin="round" stroke-width="3"/><path d="M 99.70866 316.53543 L 201.70866 316.53543 C 206.67922 316.53543 210.70866 320.56487 210.70866 325.53543 L 210.70866 427.53543 C 210.70866 432.506 206.67922 436.53543 201.70866 436.53543 L 99.70866 436.53543 C 94.7381 436.53543 90.70866 432.506 90.70866 427.53543 L 90.70866 325.53543 C 90.70866 320.56487 94.7381 316.53543 99.70866 316.53543 Z" fill="white"/><path d="M 99.70866 316.53543 L 201.70866 316.53543 C 206.67922 316.53543 210.70866 320.56487 210.70866 325.53543 L 210.70866 427.53543 C 210.70866 432.506 206.67922 436.53543 201.70866 436.53543 L 99.70866 436.53543 C 94.7381 436.53543 90.70866 432.506 90.70866 427.53543 L 90.70866 325.53543 C 90.70866 320.56487 94.7381 316.53543 99.70866 316.53543 Z" stroke="black" stroke-linecap="round" stroke-linejoin="round" stroke-width="3"/><line x1="175.35827" y1="95.90551" x2="378.5055" y2="95.90551" marker-end="url(#FilledArrow_Marker)" stroke="black" stroke-linecap="round" stroke-linejoin="round" stroke-width="3"/><line x1="395.45609" y1="151.48903" x2="222.86227" y2="310.18985" marker-end="url(#FilledArrow_Marker)" stroke="black" stroke-linecap="round" stroke-linejoin="round" stroke-width="3"/><line x1="142.6329" y1="315.03543" x2="124.00413" y2="173.17018" marker-end="url(#FilledArrow_Marker)" stroke="black" stroke-linecap="round" stroke-linejoin="round" stroke-width="3"/><path d="M 422.85827 246.61417 L 524.85827 246.61417 C 529.82883 246.61417 533.85827 250.64361 533.85827 255.61417 L 533.85827 357.61417 C 533.85827 362.58473 529.82883 366.61417 524.85827 366.61417 L 422.85827 366.61417 C 417.8877 366.61417 413.85827 362.58473 413.85827 357.61417 L 413.85827 255.61417 C 413.85827 250.64361 417.8877 246.61417 422.85827 246.61417 Z" fill="white"/><path d="M 422.85827 246.61417 L 524.85827 246.61417 C 529.82883 246.61417 533.85827 250.64361 533.85827 255.61417 L 533.85827 357.61417 C 533.85827 362.58473 529.82883 366.61417 524.85827 366.61417 L 422.85827 366.61417 C 417.8877 366.61417 413.85827 362.58473 413.85827 357.61417 L 413.85827 255.61417 C 413.85827 250.64361 417.8877 246.61417 422.85827 246.61417 Z" stroke="black" stroke-linecap="round" stroke-linejoin="round" stroke-width="3"/><line x1="461.14542" y1="157.40551" x2="467.26854" y2="229.27157" marker-end="url(#FilledArrow_Marker)" stroke="black" stroke-linecap="round" stroke-linejoin="round" stroke-width="3"/><line x1="212.20866" y1="363.22841" x2="396.81789" y2="323.28373" marker-end="url(#FilledArrow_Marker)" stroke="black" stroke-linecap="round" stroke-linejoin="round" stroke-width="3"/><path d="M 655.2992 13.228346 L 757.2992 13.228346 C 762.26977 13.228346 766.2992 17.257783 766.2992 22.228346 L 766.2992 124.228346 C 766.2992 129.19891 762.26977 133.228346 757.2992 133.228346 L 655.2992 133.228346 C 650.32865 133.228346 646.2992 129.19891 646.2992 124.228346 L 646.2992 22.228346 C 646.2992 17.257783 650.32865 13.228346 655.2992 13.228346 Z" fill="white"/><path d="M 655.2992 13.228346 L 757.2992 13.228346 C 762.26977 13.228346 766.2992 17.257783 766.2992 22.228346 L 766.2992 124.228346 C 766.2992 129.19891 762.26977 133.228346 757.2992 133.228346 L 655.2992 133.228346 C 650.32865 133.228346 646.2992 129.19891 646.2992 124.228346 L 646.2992 22.228346 C 646.2992 17.257783 650.32865 13.228346 655.2992 13.228346 Z" stroke="black" stroke-linecap="round" stroke-linejoin="round" stroke-width="3"/><path d="M 587.2677 183.30708 L 689.2677 183.30708 C 694.23828 183.30708 698.2677 187.33652 698.2677 192.30708 L 698.2677 294.30708 C 698.2677 299.27765 694.23828 303.30708 689.2677 303.30708 L 587.2677 303.30708 C 582.29715 303.30708 578.2677 299.27765 578.2677 294.30708 L 578.2677 192.30708 C 578.2677 187.33652 582.29715 183.30708 587.2677 183.30708 Z" fill="white"/><path d="M 587.2677 183.30708 L 689.2677 183.30708 C 694.23828 183.30708 698.2677 187.33652 698.2677 192.30708 L 698.2677 294.30708 C 698.2677 299.27765 694.23828 303.30708 689.2677 303.30708 L 587.2677 303.30708 C 582.29715 303.30708 578.2677 299.27765 578.2677 294.30708 L 578.2677 192.30708 C 578.2677 187.33652 582.29715 183.30708 587.2677 183.30708 Z" stroke="black" stroke-linecap="round" stroke-linejoin="round" stroke-width="3"/><path d="M 258.44882 327.87401 L 360.44882 327.87401 C 365.41938 327.87401 369.44882 331.90345 369.44882 336.87401 L 369.44882 438.87401 C 369.44882 443.84458 365.41938 447.874 360.44882 447.874 L 258.44882 447.874 C 253.47825 447.874 249.44882 443.84458 249.44882 438.87401 L 249.44882 336.87401 C 249.44882 331.90345 253.47825 327.87401 258.44882 327.87401 Z" fill="white"/><path d="M 258.44882 327.87401 L 360.44882 327.87401 C 365.41938 327.87401 369.44882 331.90345 369.44882 336.87401 L 369.44882 438.87401 C 369.44882 443.84458 365.41938 447.874 360.44882 447.874 L 258.44882 447.874 C 253.47825 447.874 249.44882 443.84458 249.44882 438.87401 L 249.44882 336.87401 C 249.44882 331.90345 253.47825 327.87401 258.44882 327.87401 Z" stroke="black" stroke-linecap="round" stroke-linejoin="round" stroke-width="3"/><path d="M 638.29133 354.3307 L 740.29133 354.3307 C 745.2619 354.3307 749.29133 358.36014 749.29133 363.3307 L 749.29133 465.3307 C 749.29133 470.30127 745.2619 474.3307 740.29133 474.3307 L 638.29133 474.3307 C 633.32077 474.3307 629.29133 470.30127 629.29133 465.3307 L 629.29133 363.3307 C 629.29133 358.36014 633.32077 354.3307 638.29133 354.3307 Z" fill="white"/><path d="M 638.29133 354.3307 L 740.29133 354.3307 C 745.2619 354.3307 749.29133 358.36014 749.29133 363.3307 L 749.29133 465.3307 C 749.29133 470.30127 745.2619 474.3307 740.29133 474.3307 L 638.29133 474.3307 C 633.32077 474.3307 629.29133 470.30127 629.29133 465.3307 L 629.29133 363.3307 C 629.29133 358.36014 633.32077 354.3307 638.29133 354.3307 Z" stroke="black" stroke-linecap="round" stroke-linejoin="round" stroke-width="3"/><path d="M 232.937 129.44882 L 334.937 129.44882 C 339.90757 129.44882 343.937 133.478255 343.937 138.44882 L 343.937 240.44882 C 343.937 245.41938 339.90757 249.44882 334.937 249.44882 L 232.937 249.44882 C 227.96644 249.44882 223.937 245.41938 223.937 240.44882 L 223.937 138.44882 C 223.937 133.478255 227.96644 129.44882 232.937 129.44882 Z" fill="white"/><path d="M 232.937 129.44882 L 334.937 129.44882 C 339.90757 129.44882 343.937 133.478255 343.937 138.44882 L 343.937 240.44882 C 343.937 245.41938 339.90757 249.44882 334.937 249.44882 L 232.937 249.44882 C 227.96644 249.44882 223.937 245.41938 223.937 240.44882 L 223.937 138.44882 C 223.937 133.478255 227.96644 129.44882 232.937 129.44882 Z" stroke="black" stroke-linecap="round" stroke-linejoin="round" stroke-width="3"/><line x1="517.4055" y1="90.3357" x2="628.964" y2="80.232287" marker-end="url(#FilledArrow_Marker)" stroke="black" stroke-linecap="round" stroke-linejoin="round" stroke-width="3"/><line x1="681.6992" y1="134.728346" x2="668.77282" y2="167.04431" marker-end="url(#FilledArrow_Marker)" stroke="black" stroke-linecap="round" stroke-linejoin="round" stroke-width="3"/><line x1="656.61578" y1="304.80708" x2="666.3976" y2="337.59434" marker-end="url(#FilledArrow_Marker)" stroke="black" stroke-linecap="round" stroke-linejoin="round" stroke-width="3"/><line x1="627.79133" y1="383.5807" x2="549.57966" y2="344.47487" marker-end="url(#FilledArrow_Marker)" stroke="black" stroke-linecap="round" stroke-linejoin="round" stroke-width="3"/><line x1="535.35827" y1="282.93314" x2="561.92972" y2="272.7016" marker-end="url(#FilledArrow_Marker)" stroke="black" stroke-linecap="round" stroke-linejoin="round" stroke-width="3"/><line x1="370.94882" y1="392.1576" x2="611.92976" y2="408.94234" marker-end="url(#FilledArrow_Marker)" stroke="black" stroke-linecap="round" stroke-linejoin="round" stroke-width="3"/><line x1="301.54167" y1="326.37401" x2="293.87175" y2="266.719" marker-end="url(#FilledArrow_Marker)" stroke="black" stroke-linecap="round" stroke-linejoin="round" stroke-width="3"/><line x1="194.50412" y1="315.03543" x2="230.91844" y2="263.90043" marker-end="url(#FilledArrow_Marker)" stroke="black" stroke-linecap="round" stroke-linejoin="round" stroke-width="3"/><line x1="222.437" y1="155.62382" x2="189.2901" y2="137.39302" marker-end="url(#FilledArrow_Marker)" stroke="black" stroke-linecap="round" stroke-linejoin="round" stroke-width="3"/><line x1="576.7677" y1="233.95908" x2="361.15645" y2="201.18617" marker-end="url(#FilledArrow_Marker)" stroke="black" stroke-linecap="round" stroke-linejoin="round" stroke-width="3"/></g></g></svg>
